# xmcd
#
# Track frame offsets: 
#        150
#        15940
#        37465
#        57930
#        71477
#        90640
#        110815
#        128030
#        147780
#        168397
#        186340
#        203820
#
# Disc length: 2973 seconds
#
# Revision: 0
# Processed by: cddbd v1.5.2PL0 Copyright (c) Steve Scherf et al.
# Submitted via: ExactAudioCopy v0.99pb3
#
DISCID=ac0b9b0c
DTITLE=Various Artist - Gospel Dream (2007)
DYEAR=2007
DGENRE=
TTITLE0=Gospel Dream Finalists - Power Of The Dream
TTITLE1=Gospel Dream Finalists - Sing
TTITLE2=Brian Smith - Love Like Rain
TTITLE3=Kimberly Lowery - Glorious
TTITLE4=Kristina Higgins - Brave
TTITLE5=Joshua Woods - Mercy Came Running
TTITLE6=Gary Greenlee, Jr. and Katrina Stone - Heart Of Worship 
TTITLE7=Christina Perrin - Your Grace Is Amazing
TTITLE8=Christi Bradford - Word Of God Speak
TTITLE9=Katrina Stone and Heather Regalado - God Of Wonders
TTITLE10=Brian Smith - Life Song
TTITLE11=Gospel Dream Finalists - Power Of The Dream
EXTD=
EXTT0=
EXTT1=
EXTT2=
EXTT3=
EXTT4=
EXTT5=
EXTT6=
EXTT7=
EXTT8=
EXTT9=
EXTT10=
EXTT11=
PLAYORDER=
